# xmcd
#
# Track frame offsets:
#	150
#	11882
#	24845
#	36196
#	48161
#	60545
#	74637
#	87974
#	102718
#	123546
#	137602
#	153300
#	169610
#	187383
#	201075
#
# Disc length: 2875 seconds
#
# Revision: 1
# Processed by: cddbd v1.5.2PL0 Copyright (c) Steve Scherf et al.
# Submitted via: audiograbber 1.83.01
#
DISCID=d40b390f
DTITLE=B.B.King - Beale Street Blues Boys 07
DYEAR=1960
DGENRE=Blues
TTITLE0=B.B.King - Hard Working Woman (King - Taub)
TTITLE1=B.B.King - Walkin' and Cryin' (King - Ling)
TTITLE2=B.B.King - Mean Old Frisco (Crudup)
TTITLE3=B.B.King - Dark is the Night Part I (Taub - Davis - King)
TTITLE4=B.B.King - Dark is the Night Part II (Taub - Davis - King)
TTITLE5=B.B.King and Duke Ellington Orchestra - Cottontail (Ellington - Strayhorn
TTITLE5=)
TTITLE6=B.B.King and Duke Ellington Orchestra - Main Stem (Ellington)
TTITLE7=B.B.King and Duke Ellington Orchestra - Solitude (Ellington - DeLange - M
TTITLE7=ills)
TTITLE8=B.B.King and Duke Ellington Orchestra - Jeeps Blues (Ellington - Hodges)
TTITLE9=B.B.King and Duke Ellington Orchestra - Eastside Westside (Ellington - Ba
TTITLE9=rnett)
TTITLE10=B.B.King and Duke Ellington Orchestra - Jack the Bear (Ellington)
TTITLE11=B.B.King and Duke Ellington Orchestra - Sophisticated Lady (Ellington - 
TTITLE11=Mills - Parish)
TTITLE12=B.B.King and Duke Ellington Orchestra - Mood Indigo (Bigard - Ellington 
TTITLE12=Mills)
TTITLE13=B.B.King and Duke Ellington Orchestra - Take the "A"Train (Strayhorn)
TTITLE14=B.B.King and Duke Ellington Orchestra - Don't get Around Much Anymore (E
TTITLE14=llington - Russel)
EXTD=
EXTT0=
EXTT1=
EXTT2=
EXTT3=
EXTT4=
EXTT5=
EXTT6=
EXTT7=
EXTT8=
EXTT9=
EXTT10=
EXTT11=
EXTT12=
EXTT13=
EXTT14=arr.by Ledeburgh
PLAYORDER=
